<svg width="15" height="13" viewBox="0 0 15 13" fill="none" xmlns="http://www.w3.org/2000/svg">
<g clip-path="url(#clip0_317_4066)">
<path d="M2.5 9.20332C2.5 10.6006 3.83188 11.7376 5.46875 11.7376H11.1769C10.9713 12.3517 10.3156 12.8047 9.53125 12.8047H2.34375C1.39563 12.8047 0.625 12.1468 0.625 11.3375V3.06764C0.625 2.25827 1.39563 1.60042 2.34375 1.60042H2.5V9.20332Z" fill="black" fill-opacity="0.1"/>
<path d="M12.6562 10.6709H5.46875C4.52062 10.6709 3.75 10.013 3.75 9.20367V1.46739C3.75 0.658013 4.52062 0.000162125 5.46875 0.000162125H12.6562C13.6044 0.000162125 14.375 0.658013 14.375 1.46739V9.20367C14.375 10.013 13.6044 10.6709 12.6562 10.6709ZM11.4062 1.60077H6.71875C6.46 1.60077 6.25 1.78004 6.25 2.00093C6.25 2.22181 6.46 2.40108 6.71875 2.40108H11.4062C11.665 2.40108 11.875 2.22181 11.875 2.00093C11.875 1.78004 11.665 1.60077 11.4062 1.60077ZM11.4062 3.73492H6.71875C6.46 3.73492 6.25 3.91419 6.25 4.13507C6.25 4.35596 6.46 4.53523 6.71875 4.53523H11.4062C11.665 4.53523 11.875 4.35596 11.875 4.13507C11.875 3.91419 11.665 3.73492 11.4062 3.73492ZM11.4062 5.6023H6.71875C6.46 5.6023 6.25 5.78157 6.25 6.00245C6.25 6.22334 6.46 6.4026 6.71875 6.4026H11.4062C11.665 6.4026 11.875 6.22334 11.875 6.00245C11.875 5.78157 11.665 5.6023 11.4062 5.6023ZM11.4062 7.73645H6.71875C6.46 7.73645 6.25 7.91571 6.25 8.1366C6.25 8.35748 6.46 8.53675 6.71875 8.53675H11.4062C11.665 8.53675 11.875 8.35748 11.875 8.1366C11.875 7.91571 11.665 7.73645 11.4062 7.73645Z" fill="black" fill-opacity="0.1"/>
</g>
<defs>
<clipPath id="clip0_317_4066">
<rect width="15" height="12.8049" fill="white" transform="matrix(1 0 0 -1 0 12.8047)"/>
</clipPath>
</defs>
</svg>
