<svg width="18" height="18" viewBox="0 0 18 18" fill="none" xmlns="http://www.w3.org/2000/svg">
<path d="M17.2435 6.19347H15.2598C15.2194 2.7698 12.4239 0 8.99291 0C5.56189 0 2.76638 2.7698 2.72964 6.19347H0.74597C0.0443378 6.24857 -0.0291315 6.85102 0.00760313 7.06776L1.75617 17.3755C1.81862 17.7355 2.13087 18 2.49454 18H15.4913C15.8586 18 16.1709 17.7355 16.2296 17.3755L17.9819 7.06776C18.0186 6.85102 17.9305 6.2449 17.2435 6.19347ZM8.99291 1.49878C11.5974 1.49878 13.717 3.59633 13.7574 6.1898H4.22842C4.26883 3.59633 6.38842 1.49878 8.99291 1.49878ZM14.8594 16.5012H3.13005L1.63128 7.69225H16.3545L14.8594 16.5012Z" fill="#0A8ED8"/>
</svg>
