<svg width="8" height="8" viewBox="0 0 8 8" fill="none" xmlns="http://www.w3.org/2000/svg">
<path d="M7.87213 2.03263L7.61008 1.76875C7.52761 1.68635 7.41788 1.64095 7.30061 1.64095C7.18341 1.64095 7.07355 1.68635 6.99108 1.76875L4.00179 4.75818L1.00905 1.76544C0.926707 1.68303 0.816852 1.6377 0.699648 1.6377C0.582444 1.6377 0.472524 1.68303 0.390117 1.76544L0.128001 2.02768C-0.042667 2.19822 -0.042667 2.47601 0.128001 2.64655L3.69122 6.22258C3.77356 6.30492 3.88328 6.36294 4.00153 6.36294H4.00289C4.12016 6.36294 4.22989 6.30485 4.31223 6.22258L7.87213 2.65624C7.9546 2.5739 7.99987 2.46086 8 2.34365C8 2.22638 7.9546 2.1149 7.87213 2.03263Z" fill="#1D2226"/>
</svg>
