<svg width="18" height="18" viewBox="0 0 18 18" fill="none" xmlns="http://www.w3.org/2000/svg">
<path d="M8.95948 2.0438L8.99859 2.0929L9.0377 2.04381C10.0556 0.766237 11.3514 0.0802734 12.7748 0.0802734C13.8795 0.0802734 14.985 0.518898 15.887 1.31749C16.8081 2.13307 17.4561 3.24646 17.7598 4.53833C18.0869 5.92953 18.154 8.15253 16.6047 10.8308C15.1952 13.2674 12.7608 15.5222 9.3646 17.5308C9.25016 17.5985 9.12419 17.6322 8.99838 17.6322C8.87252 17.6322 8.74649 17.5984 8.63206 17.5308C5.23688 15.5222 2.80334 13.2674 1.39442 10.8307C-0.154234 8.15236 -0.0867974 5.92942 0.240338 4.53815C0.544052 3.2464 1.19193 2.13312 2.11271 1.31755C3.01446 0.518893 4.11958 0.0802734 5.22389 0.0802734C6.64683 0.0802734 7.94217 0.766347 8.95948 2.0438ZM8.97236 15.8235L8.99843 15.8394L9.0245 15.8235C12.9896 13.4007 14.882 11.0215 15.7425 9.07665C16.6032 7.13154 16.4297 5.62567 16.2717 4.9538C15.8373 3.10605 14.3713 1.75459 12.7747 1.75459C11.5511 1.75459 10.4443 2.54383 9.65425 3.95768L9.65425 3.95769C9.51418 4.20845 9.2649 4.35949 8.99832 4.35949H8.99832H8.99831H8.9983H8.99829H8.99829H8.99828H8.99827H8.99826H8.99826H8.99825H8.99824H8.99823H8.99823H8.99822H8.99821H8.9982H8.99819H8.99819H8.99818H8.99817C8.73155 4.35943 8.48226 4.20829 8.34224 3.95746L8.29858 3.98183L8.34224 3.95746C7.55297 2.54378 6.44697 1.75459 5.22389 1.75459C3.62821 1.75459 2.16273 3.10601 1.72827 4.95374C1.57028 5.62561 1.39702 7.13166 2.25741 9.07685C3.11769 11.0218 5.00926 13.401 8.97236 15.8235Z" fill="#0A8ED8" stroke="white" stroke-width="0.1"/>
</svg>
