<svg width="18" height="18" viewBox="0 0 18 18" fill="none" xmlns="http://www.w3.org/2000/svg">
<g clip-path="url(#clip0_306_1799)">
<path d="M8.9608 2.72197L8.99864 2.76577L9.03648 2.72198C10.0538 1.54461 11.3498 0.911328 12.7748 0.911328C13.8807 0.911328 14.9867 1.31623 15.8886 2.05249C16.8094 2.80435 17.4567 3.83028 17.7601 5.02003C18.0867 6.30101 18.1541 8.34882 16.6056 10.8171C15.1966 13.0631 12.7626 15.1422 9.36616 16.9945C9.25152 17.057 9.12501 17.0882 8.99843 17.0882C8.8718 17.0882 8.74524 17.057 8.63059 16.9944C5.23515 15.1422 2.80198 13.0632 1.39356 10.817C-0.154228 8.34866 -0.0864854 6.30091 0.240176 5.01987C0.543511 3.83022 1.1907 2.80441 2.11125 2.05254C3.01284 1.31623 4.11846 0.911328 5.22395 0.911328C6.64849 0.911328 7.94408 1.54471 8.9608 2.72197ZM8.97393 15.4285L8.99848 15.4424L9.02303 15.4286C12.9878 13.1947 14.8808 11.0006 15.7419 9.20602C16.6033 7.41085 16.4299 6.02045 16.2715 5.39954C15.8362 3.69211 14.3685 2.44743 12.7748 2.44743C11.5531 2.44743 10.4462 3.17412 9.65519 4.47939L9.65518 4.4794C9.51602 4.70914 9.26693 4.84943 8.99837 4.84943H8.99837H8.99836H8.99835H8.99834H8.99833H8.99833H8.99832H8.99831H8.9983H8.9983H8.99829H8.99828H8.99827H8.99827H8.99826H8.99825H8.99824H8.99824H8.99823H8.99822C8.72962 4.84938 8.48052 4.70898 8.34141 4.47919C7.55119 3.17408 6.44499 2.44743 5.22395 2.44743C3.63107 2.44743 2.16393 3.69208 1.72856 5.39949C1.57021 6.0204 1.39696 7.41096 2.25811 9.20621C3.11897 11.0009 5.01115 13.195 8.97393 15.4285Z" fill="black" fill-opacity="0.2" stroke="white" stroke-width="0.1"/>
</g>
<defs>
<clipPath id="clip0_306_1799">
<rect width="18" height="18" fill="white"/>
</clipPath>
</defs>
</svg>
