<svg width="18" height="18" viewBox="0 0 18 18" fill="none" xmlns="http://www.w3.org/2000/svg">
<path d="M8.96074 2.72197L8.99857 2.76577L9.03642 2.72198C10.0537 1.54461 11.3498 0.911328 12.7748 0.911328C13.8806 0.911328 14.9867 1.31623 15.8885 2.05249C16.8094 2.80435 17.4567 3.83028 17.76 5.02003C18.0866 6.30101 18.1541 8.34882 16.6056 10.8171C15.1966 13.0631 12.7625 15.1422 9.3661 16.9945C9.25146 17.057 9.12495 17.0882 8.99837 17.0882C8.87174 17.0882 8.74518 17.057 8.63053 16.9944C5.23509 15.1422 2.80192 13.0632 1.3935 10.817C-0.154289 8.34866 -0.0865464 6.30091 0.240115 5.01987C0.54345 3.83022 1.19063 2.80441 2.11119 2.05254C3.01278 1.31623 4.11839 0.911328 5.22389 0.911328C6.64843 0.911328 7.94402 1.54471 8.96074 2.72197ZM8.97387 15.4285L8.99842 15.4424L9.02296 15.4286C12.9878 13.1947 14.8807 11.0006 15.7419 9.20602C16.6033 7.41085 16.4298 6.02045 16.2715 5.39954C15.8361 3.69211 14.3684 2.44743 12.7747 2.44743C11.5531 2.44743 10.4461 3.17412 9.65513 4.47939L9.65512 4.4794C9.51596 4.70914 9.26686 4.84943 8.99831 4.84943H8.9983H8.9983H8.99829H8.99828H8.99827H8.99827H8.99826H8.99825H8.99824H8.99824H8.99823H8.99822H8.99821H8.99821H8.9982H8.99819H8.99818H8.99817H8.99817H8.99816C8.72955 4.84938 8.48046 4.70898 8.34134 4.47919C7.55113 3.17408 6.44492 2.44743 5.22389 2.44743C3.63101 2.44743 2.16387 3.69208 1.7285 5.39949C1.57015 6.0204 1.3969 7.41096 2.25805 9.20621C3.11891 11.0009 5.01109 13.195 8.97387 15.4285Z" fill="black" fill-opacity="0.2" stroke="white" stroke-width="0.1"/>
</svg>
