<svg width="25" height="25" viewBox="0 0 25 25" fill="none" xmlns="http://www.w3.org/2000/svg">
<path d="M22.7539 0H5.17578C4.77129 0 4.44336 0.32793 4.44336 0.732422V19.1406H2.24609C1.8416 19.1406 1.51367 19.4686 1.51367 19.873V21.3379C1.51367 23.3572 3.15649 25 5.17578 25H20.5566C22.1721 25 23.4863 23.6857 23.4863 22.0703V0.732422C23.4863 0.32793 23.1584 0 22.7539 0ZM5.17578 23.5352C3.96421 23.5352 2.97852 22.5495 2.97852 21.3379V20.6055H17.627V22.0703C17.627 22.6035 17.7702 23.104 18.0201 23.5352H5.17578ZM22.0215 22.0703C22.0215 22.878 21.3644 23.5352 20.5566 23.5352C19.7489 23.5352 19.0918 22.878 19.0918 22.0703V19.873C19.0918 19.4686 18.7639 19.1406 18.3594 19.1406H5.9082V1.46484H22.0215V22.0703Z" fill="#FFD952"/>
<path d="M9.57031 5.95703H18.3594C18.7639 5.95703 19.0918 5.6291 19.0918 5.22461C19.0918 4.82012 18.7639 4.49219 18.3594 4.49219H9.57031C9.16582 4.49219 8.83789 4.82012 8.83789 5.22461C8.83789 5.6291 9.16582 5.95703 9.57031 5.95703Z" fill="#FFD952" fill-opacity="0.5"/>
<path d="M9.57031 8.88672H13.9648C14.3693 8.88672 14.6973 8.55879 14.6973 8.1543C14.6973 7.7498 14.3693 7.42188 13.9648 7.42188H9.57031C9.16582 7.42188 8.83789 7.7498 8.83789 8.1543C8.83789 8.55879 9.16582 8.88672 9.57031 8.88672Z" fill="#FFD952" fill-opacity="0.5"/>
<path d="M8.62332 17.4613L10.0884 15.9962C10.3753 16.1337 10.6963 16.2109 11.0351 16.2109C11.374 16.2109 11.695 16.1337 11.9819 15.9962L13.4469 17.4613C13.7329 17.7473 14.1967 17.7474 14.4827 17.4613C14.7687 17.1752 14.7687 16.7115 14.4827 16.4255L13.0177 14.9604C13.1552 14.6735 13.2324 14.3525 13.2324 14.0137C13.2324 12.8021 12.2467 11.8164 11.0351 11.8164C9.82356 11.8164 8.83787 12.8021 8.83787 14.0137C8.83787 14.3525 8.91506 14.6735 9.05261 14.9604L7.58757 16.4254C7.30154 16.7115 7.30154 17.1752 7.58757 17.4612C7.87356 17.7473 8.33733 17.7473 8.62332 17.4613ZM11.0351 13.2812C11.439 13.2812 11.7676 13.6098 11.7676 14.0137C11.7676 14.4175 11.439 14.7461 11.0351 14.7461C10.6313 14.7461 10.3027 14.4175 10.3027 14.0137C10.3027 13.6098 10.6313 13.2812 11.0351 13.2812Z" fill="#FFD952" fill-opacity="0.5"/>
</svg>
