<svg width="39" height="39" viewBox="0 0 39 39" fill="none" xmlns="http://www.w3.org/2000/svg">
<path d="M13.8121 23.9688H13.4062V24.7817H13.8121C14.04 24.7817 14.2179 24.6025 14.2179 24.3758C14.2192 24.1467 14.04 23.9688 13.8121 23.9688Z" fill="#1192DB"/>
<path d="M18.0776 23.9688H17.4683V26.4062H18.0776C18.191 26.4062 18.2812 26.3173 18.2812 26.2027V24.1711C18.2812 24.0577 18.1922 23.9688 18.0776 23.9688Z" fill="#1192DB"/>
<path d="M23.7656 22.3433C19.8498 22.3433 16.6567 19.1502 16.6567 15.2344C16.6567 13.0321 17.6646 11.0577 19.2489 9.75H11.9852C10.7494 9.75 9.75 10.7494 9.75 11.984V27.0148C9.75 28.2506 10.7494 29.25 11.984 29.25H23.7656C25.0002 29.25 25.9996 28.2506 25.9996 27.016V21.9863C25.3013 22.2142 24.5456 22.3433 23.7656 22.3433ZM13.8121 25.9996H13.4062V27.0148C13.4062 27.3475 13.1296 27.6242 12.7969 27.6242C12.4642 27.6242 12.1875 27.3475 12.1875 27.0148V23.3586C12.1875 23.0258 12.4642 22.7492 12.7969 22.7492H13.8121C14.7054 22.7492 15.4367 23.4804 15.4367 24.3738C15.4379 25.2683 14.7067 25.9996 13.8121 25.9996ZM19.5 26.2031C19.5 26.9831 18.8577 27.6254 18.0777 27.6254H16.859C16.5263 27.6254 16.2496 27.3487 16.2496 27.016V23.3598C16.2496 23.0271 16.5263 22.7504 16.859 22.7504H18.0777C18.8577 22.7504 19.5 23.3927 19.5 24.1727V26.2031ZM22.9527 24.7808C23.2891 24.7808 23.5621 25.0538 23.5621 25.3902C23.5621 25.7266 23.2891 25.9996 22.9527 25.9996H21.5304V27.0148C21.5304 27.3512 21.2574 27.6242 20.9211 27.6242C20.5847 27.6242 20.3117 27.3512 20.3117 27.0148V24.1715C20.3117 23.3878 20.9491 22.7492 21.734 22.7492H22.9527C23.2891 22.7492 23.5621 23.0222 23.5621 23.3586C23.5621 23.6949 23.2891 23.9679 22.9527 23.9679H21.734C21.6218 23.9679 21.5304 24.0593 21.5304 24.1715V24.7808H22.9527Z" fill="#1192DB"/>
<path d="M23.7656 9.75C20.7419 9.75 18.2812 12.2107 18.2812 15.2344C18.2812 18.2581 20.7419 20.7188 23.7656 20.7188C26.7893 20.7188 29.25 18.2581 29.25 15.2344C29.25 12.2107 26.7893 9.75 23.7656 9.75ZM25.9996 16.0473H24.5773V17.4696C24.5773 17.9181 24.2129 18.2825 23.7644 18.2825C23.3159 18.2825 22.9515 17.9181 22.9515 17.4696V16.0473H21.5292C21.0832 16.0473 20.7188 15.6829 20.7188 15.2344C20.7188 14.7859 21.0832 14.4215 21.5317 14.4215H22.9539V12.9992C22.9539 12.5507 23.3183 12.1863 23.7668 12.1863C24.2153 12.1863 24.5797 12.5507 24.5797 12.9992V14.4215H26.002C26.4505 14.4215 26.8149 14.7859 26.8149 15.2344C26.8149 15.6829 26.4481 16.0473 25.9996 16.0473Z" fill="#1192DB" fill-opacity="0.27"/>
</svg>
