<svg width="25" height="25" viewBox="0 0 25 25" fill="none" xmlns="http://www.w3.org/2000/svg">
<path d="M16.1608 16.8945C16.1608 17.2991 15.8327 17.627 15.4283 17.627C15.0238 17.627 14.6959 17.2991 14.6959 16.8945C14.6959 16.49 15.0238 16.1621 15.4283 16.1621C15.8327 16.1621 16.1608 16.49 16.1608 16.8945Z" fill="#A1DBFC"/>
<path d="M19.1393 16.8945C19.1393 17.2991 18.8112 17.627 18.4069 17.627C18.0023 17.627 17.6744 17.2991 17.6744 16.8945C17.6744 16.49 18.0023 16.1621 18.4069 16.1621C18.8112 16.1621 19.1393 16.49 19.1393 16.8945Z" fill="#A1DBFC"/>
<path d="M22.069 16.8945C22.069 17.2991 21.7409 17.627 21.3365 17.627C20.932 17.627 20.6041 17.2991 20.6041 16.8945C20.6041 16.49 20.932 16.1621 21.3365 16.1621C21.7409 16.1621 22.069 16.49 22.069 16.8945Z" fill="#A1DBFC"/>
<path d="M22.8027 0H2.19727C0.985718 0 0 0.985718 0 2.19727V6.24599C0 6.58531 0.0802994 6.9252 0.231934 7.22866L1.13735 9.03931C1.48602 9.73644 2.16236 10.1875 2.92969 10.2467V11.7676H2.19727C0.985718 11.7676 0 12.7533 0 13.9648V18.0136C0 18.3529 0.0802994 18.6928 0.231934 18.9962L1.13735 20.8069C1.48602 21.504 2.16236 21.9551 2.92969 22.0142V24.2676C2.92969 24.6721 3.25756 25 3.66211 25H21.3379C21.7424 25 22.0703 24.6721 22.0703 24.2676V22.0142C22.8376 21.9551 23.514 21.504 23.8626 20.8069L24.7681 18.9962C24.9197 18.6928 25 18.3529 25 18.0136V13.9648C25 12.7533 24.0143 11.7676 22.8027 11.7676H22.0703V10.2467C22.8376 10.1875 23.514 9.73644 23.8626 9.03931L24.7681 7.22866C24.9197 6.9252 25 6.58531 25 6.24599V2.19727C25 0.985718 24.0143 0 22.8027 0ZM8.83789 8.78906V7.32422H10.3027V8.78906H8.83789ZM4.39453 5.85938V4.39453H11.7676V5.85938H4.39453ZM7.37305 7.32422V8.78906H5.85938V7.32422H7.37305ZM8.83789 20.5566V19.0918H10.3027V20.5566H8.83789ZM4.39453 17.627V16.1621H11.7676V17.627H4.39453ZM7.37305 19.0918V20.5566H5.85938V19.0918H7.37305ZM4.39453 23.5352V22.0215H20.6055V23.5352H4.39453ZM23.5352 13.9648V18.0136C23.5352 18.1267 23.5085 18.24 23.4579 18.3411L22.5525 20.1517C22.4276 20.4016 22.1766 20.5566 21.8975 20.5566H11.7676V19.0918H12.5C12.9045 19.0918 13.2324 18.7639 13.2324 18.3594V15.4297C13.2324 15.0251 12.9045 14.6973 12.5 14.6973H3.66211C3.25756 14.6973 2.92969 15.0251 2.92969 15.4297V18.3594C2.92969 18.7639 3.25756 19.0918 3.66211 19.0918H4.39453V20.5566H3.10249C2.82345 20.5566 2.57244 20.4016 2.44751 20.1517L1.54209 18.3411C1.49155 18.24 1.46484 18.1267 1.46484 18.0136V13.9648C1.46484 13.5611 1.79348 13.2324 2.19727 13.2324H22.8027C23.2065 13.2324 23.5352 13.5611 23.5352 13.9648ZM4.39453 11.7676V10.2539H20.6055V11.7676H4.39453ZM23.5352 6.24599C23.5352 6.3591 23.5085 6.4724 23.4579 6.57349L22.5525 8.38413C22.4276 8.634 22.1766 8.78906 21.8975 8.78906H11.7676V7.32422H12.5C12.9045 7.32422 13.2324 6.99635 13.2324 6.5918V3.66211C13.2324 3.25756 12.9045 2.92969 12.5 2.92969H3.66211C3.25756 2.92969 2.92969 3.25756 2.92969 3.66211V6.5918C2.92969 6.99635 3.25756 7.32422 3.66211 7.32422H4.39453V8.78906H3.10249C2.82345 8.78906 2.57244 8.634 2.44751 8.38413L1.54209 6.57349C1.49155 6.4724 1.46484 6.3591 1.46484 6.24599V2.19727C1.46484 1.79348 1.79348 1.46484 2.19727 1.46484H22.8027C23.2065 1.46484 23.5352 1.79348 23.5352 2.19727V6.24599Z" fill="#0A8ED8"/>
<path d="M16.1608 5.12695C16.1608 5.5315 15.8327 5.85938 15.4283 5.85938C15.0238 5.85938 14.6959 5.5315 14.6959 5.12695C14.6959 4.7224 15.0238 4.39453 15.4283 4.39453C15.8327 4.39453 16.1608 4.7224 16.1608 5.12695Z" fill="#A1DBFC"/>
<path d="M19.1393 5.12695C19.1393 5.5315 18.8112 5.85938 18.4069 5.85938C18.0023 5.85938 17.6744 5.5315 17.6744 5.12695C17.6744 4.7224 18.0023 4.39453 18.4069 4.39453C18.8112 4.39453 19.1393 4.7224 19.1393 5.12695Z" fill="#A1DBFC"/>
<path d="M22.069 5.12695C22.069 5.5315 21.7409 5.85938 21.3365 5.85938C20.932 5.85938 20.6041 5.5315 20.6041 5.12695C20.6041 4.7224 20.932 4.39453 21.3365 4.39453C21.7409 4.39453 22.069 4.7224 22.069 5.12695Z" fill="#A1DBFC"/>
</svg>
