<svg width="25" height="13" viewBox="0 0 25 13" fill="none" xmlns="http://www.w3.org/2000/svg">
<path d="M4.73721 10.667H0.526367C0.2354 10.667 0 10.9 0 11.1878C0 11.4757 0.2354 11.7087 0.526367 11.7087H4.73721C5.02812 11.7087 5.26357 11.4757 5.26357 11.1878C5.26357 10.9 5.02817 10.667 4.73721 10.667Z" fill="white"/>
<path d="M5.26357 7.54199H0.526367C0.2354 7.54199 0 7.77495 0 8.06284C0 8.35074 0.2354 8.5837 0.526367 8.5837H5.26357C5.55449 8.5837 5.78994 8.35074 5.78994 8.06284C5.78994 7.77495 5.55449 7.54199 5.26357 7.54199Z" fill="white"/>
<path d="M5.78994 4.41699H0.526367C0.2354 4.41699 0 4.64995 0 4.93784C0 5.22573 0.2354 5.45869 0.526367 5.45869H5.78994C6.08086 5.45869 6.31631 5.22573 6.31631 4.93784C6.31631 4.64995 6.08086 4.41699 5.78994 4.41699Z" fill="white"/>
<path d="M9.83634 2.40859C11.9305 4.44258 14.3047 6.74868 15.0141 7.40942C15.1123 7.50049 15.2449 7.54775 15.3785 7.54775C15.4412 7.54775 15.504 7.5376 15.5636 7.51621C15.6093 7.49995 15.7316 7.45669 15.8756 7.35903C16.8003 6.73188 19.8187 4.75537 22.6406 2.90752L24.6093 1.61816C24.7409 1.53169 24.8268 1.39082 24.8422 1.23516C24.8576 1.07949 24.8021 0.925391 24.69 0.814502C24.3204 0.450391 23.83 0.25 23.3088 0.25H10.2295C9.76026 0.25 9.29713 0.410742 8.92447 0.702148C8.80626 0.795215 8.73375 0.933594 8.72555 1.08311C8.71783 1.23267 8.77491 1.37812 8.88282 1.48237L9.83634 2.40859Z" fill="white"/>
<path d="M24.7697 3.15024C24.5928 3.03173 24.3615 3.02968 24.1837 3.14618L23.0071 3.91674C20.254 5.71933 17.3703 7.60785 16.4702 8.21767C15.7434 8.71254 14.8506 8.68764 14.2923 8.16679C13.5753 7.49945 11.1969 5.1893 9.07087 3.12426L8.79431 2.85571C8.65706 2.72192 8.45813 2.67309 8.27312 2.72856C8.08909 2.78349 7.94978 2.93354 7.91023 3.11967L6.35842 10.4139C6.33069 10.5451 6.31628 10.6794 6.31628 10.8137C6.31628 11.8813 7.19373 12.7495 8.27263 12.7495H21.3519C22.3414 12.7495 23.208 12.0542 23.4126 11.0954L24.9885 3.68832C25.0328 3.48188 24.946 3.26928 24.7697 3.15024Z" fill="white"/>
<path d="M0.526367 2.33369H6.31631C6.60723 2.33369 6.84268 2.10073 6.84268 1.81284C6.84268 1.52495 6.60728 1.29199 6.31631 1.29199H0.526367C0.2354 1.29199 0 1.52495 0 1.81284C0 2.10073 0.2354 2.33369 0.526367 2.33369Z" fill="white"/>
</svg>
