<svg width="28" height="28" viewBox="0 0 28 28" fill="none" xmlns="http://www.w3.org/2000/svg">
<path d="M25.5391 7.4375H23.0234V6.61719C23.0234 5.26025 21.9194 4.15625 20.5625 4.15625C19.2056 4.15625 18.1016 5.26025 18.1016 6.61719V7.4375H2.46094C1.104 7.4375 0 8.5415 0 9.89844V19.7422C0 21.0991 1.104 22.2031 2.46094 22.2031H3.28125V23.0234C3.28125 23.4765 3.64847 23.8438 4.10156 23.8438C4.55466 23.8438 4.92188 23.4765 4.92188 23.0234V22.2031H23.0234V23.0234C23.0234 23.4765 23.3907 23.8438 23.8438 23.8438C24.2968 23.8438 24.6641 23.4765 24.6641 23.0234V22.2031H25.5391C26.896 22.2031 28 21.0991 28 19.7422V9.89844C28 8.5415 26.896 7.4375 25.5391 7.4375ZM19.7422 6.61719C19.7422 6.16495 20.1103 5.79688 20.5625 5.79688C21.0147 5.79688 21.3828 6.16495 21.3828 6.61719V7.4375H19.7422V6.61719ZM26.3594 19.7422C26.3594 20.1944 25.9913 20.5625 25.5391 20.5625H2.46094C2.0087 20.5625 1.64062 20.1944 1.64062 19.7422V9.89844C1.64062 9.4462 2.0087 9.07812 2.46094 9.07812H25.5391C25.9913 9.07812 26.3594 9.4462 26.3594 9.89844V19.7422Z" fill="#0A8ED8"/>
<path d="M10.7188 10.7188H5.74219C5.28909 10.7188 4.92188 11.086 4.92188 11.5391V18.1016C4.92188 18.5547 5.28909 18.9219 5.74219 18.9219H10.7188C11.1718 18.9219 11.5391 18.5547 11.5391 18.1016V11.5391C11.5391 11.086 11.1718 10.7188 10.7188 10.7188ZM9.89844 17.2812H6.5625V12.3594H9.89844V17.2812Z" fill="#A1DBFC"/>
<path d="M22.2031 10.7188H17.2812C16.8282 10.7188 16.4609 11.086 16.4609 11.5391V18.1016C16.4609 18.5547 16.8282 18.9219 17.2812 18.9219H22.2031C22.6562 18.9219 23.0234 18.5547 23.0234 18.1016V11.5391C23.0234 11.086 22.6562 10.7188 22.2031 10.7188ZM21.3828 17.2812H18.1016V12.3594H21.3828V17.2812Z" fill="#A1DBFC"/>
<path d="M14.8188 13.1797C14.8188 13.6328 14.4514 14 13.9985 14C13.5454 14 13.1782 13.6328 13.1782 13.1797C13.1782 12.7266 13.5454 12.3594 13.9985 12.3594C14.4514 12.3594 14.8188 12.7266 14.8188 13.1797Z" fill="#A1DBFC"/>
<path d="M14.8188 16.4609C14.8188 16.914 14.4514 17.2812 13.9985 17.2812C13.5454 17.2812 13.1782 16.914 13.1782 16.4609C13.1782 16.0078 13.5454 15.6406 13.9985 15.6406C14.4514 15.6406 14.8188 16.0078 14.8188 16.4609Z" fill="#A1DBFC"/>
</svg>
