<svg width="26" height="26" viewBox="0 0 26 26" fill="none" xmlns="http://www.w3.org/2000/svg">
<g clip-path="url(#clip0_306_1596)">
<path d="M24.6997 0.22316L22.0065 2.91615L21.468 2.37759C20.5769 1.48654 19.1273 1.48654 18.2362 2.37759L17.605 3.00879C16.7558 2.60432 15.7067 2.7527 15.0045 3.45471L12.3115 6.1479L11.7729 5.60934C11.4754 5.3118 10.9932 5.3118 10.6956 5.60934C10.3983 5.90669 10.3983 6.38892 10.6956 6.68646C10.8688 6.85963 18.9238 14.9144 19.3135 15.3044C19.6109 15.6017 20.0933 15.6017 20.3907 15.3044C20.6882 15.0069 20.6882 14.5246 20.3907 14.2271L19.8521 13.6885L22.5453 10.9955C23.2475 10.2933 23.3957 9.24417 22.9912 8.39497L23.6224 7.76378C24.5155 6.87074 24.5157 5.42526 23.6224 4.53203L23.0839 3.99347L25.7771 1.30028C26.0744 1.00293 26.0744 0.520706 25.7771 0.22316C25.4795 -0.0743866 24.9971 -0.0743866 24.6997 0.22316ZM20.3907 3.45471L22.5451 5.60934C22.8428 5.90709 22.8428 6.38872 22.5451 6.68646L22.0065 7.22522L18.7748 3.99347L19.3135 3.45491C19.6105 3.15776 20.0937 3.15776 20.3907 3.45471ZM21.468 9.91821L18.7748 12.6114L13.3888 7.22522L16.0818 4.53203C16.3787 4.23508 16.862 4.23508 17.1591 4.53203V4.53223L21.468 8.8409C21.7649 9.13805 21.7649 9.62126 21.468 9.91821Z" fill="#0A8ED8"/>
<path d="M1.29991 25.7726L3.69317 23.3833L4.23233 23.9224C5.12318 24.8133 6.57302 24.8133 7.46408 23.9224L8.09527 23.2911C8.94328 23.6951 9.99183 23.5489 10.6956 22.8451L13.3888 20.1521L13.9274 20.6907C14.2247 20.988 14.7072 20.9882 15.0045 20.6907C15.302 20.3931 15.302 19.9109 15.0045 19.6134L13.3888 17.9975L16.0818 15.3045C16.3794 15.007 16.3794 14.5247 16.0818 14.2272C15.7845 13.9298 15.302 13.9298 15.0045 14.2272L12.3115 16.9204L9.07975 13.6886L11.7729 10.9956C12.0705 10.6981 12.0705 10.2159 11.7729 9.91832C11.4754 9.62098 10.9932 9.62098 10.6956 9.91832L8.00264 12.6115C7.6795 12.2884 6.70771 11.3166 6.38676 10.9956C6.08941 10.6981 5.60699 10.6981 5.30944 10.9956C5.0121 11.293 5.0121 11.7754 5.30944 12.0728L5.8482 12.6115L3.15501 15.3045C2.4528 16.0065 2.30442 17.0557 2.70909 17.9049L2.07789 18.5363C1.18684 19.4271 1.18684 20.877 2.07789 21.7678L2.61605 22.3062L0.223582 24.6945C-0.0741632 24.9916 -0.0745599 25.4741 0.22259 25.7718C0.518946 26.0686 1.00137 26.0707 1.29991 25.7726ZM5.30944 22.8451C4.53801 22.0737 3.94827 21.484 3.15501 20.6907C2.85806 20.3937 2.85806 19.9103 3.15501 19.6134L3.69357 19.0748L6.92532 22.3066L6.38676 22.8451C6.08961 23.1423 5.60659 23.1421 5.30944 22.8451ZM4.23233 16.3818L6.92532 13.6886C7.90187 14.6652 11.65 18.4133 12.3115 19.0748L9.61851 21.7678C9.32156 22.065 8.83834 22.065 8.54119 21.768V21.7678L4.23233 17.4589C3.93518 17.162 3.93518 16.6788 4.23233 16.3818Z" fill="#0A8ED8"/>
</g>
<defs>
<clipPath id="clip0_306_1596">
<rect width="26" height="26" fill="white"/>
</clipPath>
</defs>
</svg>
