<svg width="16" height="16" viewBox="0 0 16 16" fill="none" xmlns="http://www.w3.org/2000/svg">
<g opacity="0.15">
<path d="M5.33334 0C8.27409 0 10.6667 2.39259 10.6667 5.33334C10.6667 5.68359 10.6286 6.04297 10.5534 6.40397L11.1491 6.70181C11.2448 6.74966 11.3119 6.84081 11.3291 6.94659C11.3464 7.05238 11.3115 7.15981 11.2357 7.23566L10.8047 7.66666L11.138 8H11.6667C11.8509 8 12 8.14909 12 8.33334V8.862L12.4714 9.33334H13C13.1842 9.33334 13.3333 9.48244 13.3333 9.66669V10.1953L13.8047 10.6667H14.3333C14.5176 10.6667 14.6667 10.8158 14.6667 11V11.5287L15.9023 12.7643C15.9648 12.8268 16 12.9114 16 13V15.6667C16 15.8509 15.8509 16 15.6667 16H13C12.9115 16 12.8268 15.9648 12.7643 15.9023L7.66666 10.8047L7.23566 11.2357C7.16012 11.3115 7.05237 11.347 6.94659 11.3291C6.84081 11.3119 6.74966 11.2448 6.70181 11.1491L6.40397 10.5534C3.01238 11.2604 0 8.62434 0 5.33334C0 2.39259 2.39256 0 5.33334 0ZM8.76431 9.23569L13.431 13.9023C13.4961 13.9674 13.5814 14 13.6667 14C13.752 14 13.8372 13.9674 13.9024 13.9023C14.0326 13.7721 14.0326 13.5612 13.9024 13.431L9.23572 8.76434C9.1055 8.63413 8.89456 8.63413 8.76438 8.76434C8.63413 8.89453 8.63412 9.10547 8.76431 9.23569ZM3.66666 5.33334C4.58559 5.33334 5.33331 4.58562 5.33331 3.66669C5.33331 2.74775 4.58563 2 3.66666 2C2.74769 2 2 2.74772 2 3.66666C2 4.58559 2.74772 5.33334 3.66666 5.33334Z" fill="black"/>
</g>
</svg>
