<svg width="26" height="26" viewBox="0 0 26 26" fill="none" xmlns="http://www.w3.org/2000/svg">
<path d="M23.7148 14.4893H15.2852V12.2041C15.2852 11.7834 14.9442 11.4424 14.5234 11.4424H13.7617V4.58691C13.7617 4.16618 13.4207 3.8252 13 3.8252C12.5793 3.8252 12.2383 4.16618 12.2383 4.58691V11.4424H11.4766C11.0558 11.4424 10.7148 11.7834 10.7148 12.2041V14.4893H2.28516C1.02515 14.4893 0 15.5144 0 16.7744V21.3447C0 22.6047 1.02515 23.6299 2.28516 23.6299H4.57031V24.3916C4.57031 24.8123 4.9113 25.1533 5.33203 25.1533C5.75276 25.1533 6.09375 24.8123 6.09375 24.3916V23.6299H19.9062V24.3916C19.9062 24.8123 20.2472 25.1533 20.668 25.1533C21.0887 25.1533 21.4297 24.8123 21.4297 24.3916V23.6299H23.7148C24.9749 23.6299 26 22.6047 26 21.3447V16.7744C26 15.5144 24.9749 14.4893 23.7148 14.4893ZM12.2383 12.9658H13.7617V14.4893H12.2383V12.9658ZM24.4766 21.3447C24.4766 21.7647 24.1348 22.1064 23.7148 22.1064H2.28516C1.86522 22.1064 1.52344 21.7647 1.52344 21.3447V16.7744C1.52344 16.3545 1.86522 16.0127 2.28516 16.0127H23.7148C24.1348 16.0127 24.4766 16.3545 24.4766 16.7744V21.3447Z" fill="#0A8ED8"/>
<path d="M13 19.0596H3.80859C3.38786 19.0596 3.04688 19.4006 3.04688 19.8213C3.04688 20.242 3.38786 20.583 3.80859 20.583H13C13.4207 20.583 13.7617 20.242 13.7617 19.8213C13.7617 19.4006 13.4207 19.0596 13 19.0596Z" fill="#A1DBFC"/>
<path d="M19.9048 19.8213C19.9048 20.242 19.5637 20.583 19.1431 20.583C18.7224 20.583 18.3814 20.242 18.3814 19.8213C18.3814 19.4006 18.7224 19.0596 19.1431 19.0596C19.5637 19.0596 19.9048 19.4006 19.9048 19.8213Z" fill="#A1DBFC"/>
<path d="M16.8072 19.8213C16.8072 20.242 16.466 20.583 16.0455 20.583C15.6247 20.583 15.2838 20.242 15.2838 19.8213C15.2838 19.4006 15.6247 19.0596 16.0455 19.0596C16.466 19.0596 16.8072 19.4006 16.8072 19.8213Z" fill="#A1DBFC"/>
<path d="M22.9517 19.8213C22.9517 20.242 22.6105 20.583 22.19 20.583C21.7693 20.583 21.4283 20.242 21.4283 19.8213C21.4283 19.4006 21.7693 19.0596 22.19 19.0596C22.6105 19.0596 22.9517 19.4006 22.9517 19.8213Z" fill="#A1DBFC"/>
<path d="M4.75598 0.923773C4.36858 0.759726 3.92166 0.940832 3.75761 1.32804C3.31963 2.36152 3.09766 3.45807 3.09766 4.58716C3.09766 5.71625 3.31963 6.81281 3.75761 7.84629C3.92146 8.2333 4.36838 8.4148 4.75598 8.25056C5.14339 8.08651 5.3243 7.63939 5.16025 7.25199C4.8024 6.40755 4.62109 5.51095 4.62109 4.58716C4.62109 3.66338 4.8024 2.76678 5.16025 1.92234C5.32449 1.53493 5.14339 1.08802 4.75598 0.923773Z" fill="#A1DBFC"/>
<path d="M21.244 8.25058C21.6328 8.41523 22.079 8.23214 22.2424 7.84632C22.6804 6.81284 22.9024 5.71628 22.9024 4.58719C22.9024 3.4581 22.6804 2.36155 22.2424 1.32807C22.0784 0.940662 21.6313 0.759754 21.244 0.923801C20.8566 1.08805 20.6757 1.53496 20.8398 1.92237C21.1976 2.7668 21.3789 3.66341 21.3789 4.58719C21.3789 5.51097 21.1976 6.40758 20.8398 7.25202C20.6755 7.63942 20.8566 8.08654 21.244 8.25058Z" fill="#A1DBFC"/>
<path d="M7.56303 2.10834C7.17583 1.94429 6.72871 2.1254 6.56467 2.51281C6.28596 3.17058 6.14453 3.86863 6.14453 4.5871C6.14453 5.30578 6.28596 6.00362 6.56467 6.6616C6.72832 7.04821 7.17503 7.23011 7.56303 7.06586C7.95044 6.90182 8.13135 6.4547 7.9673 6.0673C7.76874 5.59836 7.66797 5.10047 7.66797 4.5871C7.66797 4.07373 7.76874 3.57584 7.9673 3.10691C8.13135 2.7195 7.95044 2.27259 7.56303 2.10834Z" fill="#A1DBFC"/>
<path d="M18.437 7.06569C18.825 7.23014 19.2717 7.04804 19.4353 6.66143C19.714 6.00345 19.8555 5.30561 19.8555 4.58693C19.8555 3.86846 19.714 3.17061 19.4353 2.51264C19.2713 2.12523 18.8244 1.94432 18.437 2.10837C18.0495 2.27242 17.8686 2.71953 18.0327 3.10674C18.2313 3.57567 18.332 4.07357 18.332 4.58693C18.332 5.1003 18.2313 5.59819 18.0327 6.06713C17.8686 6.45453 18.0495 6.90165 18.437 7.06569Z" fill="#A1DBFC"/>
<path d="M10.3695 3.29276C9.98209 3.12891 9.53517 3.31022 9.37132 3.69782C9.25191 3.9799 9.19141 4.27923 9.19141 4.58729C9.19141 4.89535 9.25191 5.19468 9.37132 5.47695C9.53517 5.86435 9.98209 6.04566 10.3695 5.88181C10.7569 5.71796 10.9382 5.27105 10.7744 4.88364C10.7349 4.79021 10.7148 4.69044 10.7148 4.58729C10.7148 4.48414 10.7349 4.38456 10.7744 4.29113C10.9382 3.90352 10.7569 3.45661 10.3695 3.29276Z" fill="#A1DBFC"/>
<path d="M15.6305 5.88182C16.0179 6.04567 16.4648 5.86436 16.6287 5.47696C16.7481 5.19468 16.8086 4.89535 16.8086 4.58729C16.8086 4.27923 16.7481 3.9799 16.6287 3.69763C16.4648 3.31022 16.0181 3.12892 15.6305 3.29276C15.2431 3.45661 15.0618 3.90353 15.2256 4.29093C15.2651 4.38436 15.2851 4.48414 15.2851 4.58729C15.2851 4.69044 15.2651 4.79022 15.2256 4.88365C15.0618 5.27105 15.2431 5.71797 15.6305 5.88182Z" fill="#A1DBFC"/>
</svg>
