<svg width="26" height="22" viewBox="0 0 26 22" fill="none" xmlns="http://www.w3.org/2000/svg">
<path d="M23.7148 1.33203H2.28516C1.02515 1.33203 0 2.19946 0 3.26562V18.7344C0 19.8005 1.02515 20.668 2.28516 20.668H23.7148C24.9749 20.668 26 19.8005 26 18.7344V3.26562C26 2.19946 24.9749 1.33203 23.7148 1.33203ZM24.4766 18.7344C24.4766 19.0897 24.1348 19.3789 23.7148 19.3789H2.28516C1.86522 19.3789 1.52344 19.0897 1.52344 18.7344V3.26562C1.52344 2.91029 1.86522 2.62109 2.28516 2.62109H23.7148C24.1348 2.62109 24.4766 2.91029 24.4766 3.26562V18.7344Z" fill="#0A8ED8"/>
<path d="M22.1406 3.91016H3.85938C3.43864 3.91016 3.09766 4.19868 3.09766 4.55469V12.2891C3.09766 12.6451 3.43864 12.9336 3.85938 12.9336H4.62109V14.8672C4.62109 15.2232 4.96208 15.5117 5.38281 15.5117H7.66797V17.4453C7.66797 17.8013 8.00896 18.0898 8.42969 18.0898H17.5703C17.991 18.0898 18.332 17.8013 18.332 17.4453V15.5117H20.6172C21.0379 15.5117 21.3789 15.2232 21.3789 14.8672V12.9336H22.1406C22.5614 12.9336 22.9023 12.6451 22.9023 12.2891V4.55469C22.9023 4.19868 22.5614 3.91016 22.1406 3.91016ZM21.3789 11.6445H20.6172C20.1965 11.6445 19.8555 11.9331 19.8555 12.2891V14.2227H17.5703C17.1496 14.2227 16.8086 14.5112 16.8086 14.8672V16.8008H9.19141V14.8672C9.19141 14.5112 8.85042 14.2227 8.42969 14.2227H6.14453V12.2891C6.14453 11.9331 5.80354 11.6445 5.38281 11.6445H4.62109V5.19922H21.3789V11.6445Z" fill="#0A8ED8"/>
<path d="M5.38281 16.8008H3.85938C3.43864 16.8008 3.09766 17.0893 3.09766 17.4453C3.09766 17.8013 3.43864 18.0898 3.85938 18.0898H5.38281C5.80354 18.0898 6.14453 17.8013 6.14453 17.4453C6.14453 17.0893 5.80354 16.8008 5.38281 16.8008Z" fill="#A1DBFC"/>
<path d="M22.1406 16.8008H20.6172C20.1965 16.8008 19.8555 17.0893 19.8555 17.4453C19.8555 17.8013 20.1965 18.0898 20.6172 18.0898H22.1406C22.5614 18.0898 22.9023 17.8013 22.9023 17.4453C22.9023 17.0893 22.5614 16.8008 22.1406 16.8008Z" fill="#A1DBFC"/>
<path d="M6.90625 10.3555C7.32698 10.3555 7.66797 10.0669 7.66797 9.71094V7.13281C7.66797 6.77681 7.32698 6.48828 6.90625 6.48828C6.48552 6.48828 6.14453 6.77681 6.14453 7.13281V9.71094C6.14453 10.0669 6.48552 10.3555 6.90625 10.3555Z" fill="#A1DBFC"/>
<path d="M9.95312 10.3555C10.3739 10.3555 10.7148 10.0669 10.7148 9.71094V7.13281C10.7148 6.77681 10.3739 6.48828 9.95312 6.48828C9.53239 6.48828 9.19141 6.77681 9.19141 7.13281V9.71094C9.19141 10.0669 9.53239 10.3555 9.95312 10.3555Z" fill="#A1DBFC"/>
<path d="M13 10.3555C13.4207 10.3555 13.7617 10.0669 13.7617 9.71094V7.13281C13.7617 6.77681 13.4207 6.48828 13 6.48828C12.5793 6.48828 12.2383 6.77681 12.2383 7.13281V9.71094C12.2383 10.0669 12.5793 10.3555 13 10.3555Z" fill="#A1DBFC"/>
<path d="M16.0469 10.3555C16.4676 10.3555 16.8086 10.0669 16.8086 9.71094V7.13281C16.8086 6.77681 16.4676 6.48828 16.0469 6.48828C15.6261 6.48828 15.2852 6.77681 15.2852 7.13281V9.71094C15.2852 10.0669 15.6261 10.3555 16.0469 10.3555Z" fill="#A1DBFC"/>
<path d="M19.0938 10.3555C19.5145 10.3555 19.8555 10.0669 19.8555 9.71094V7.13281C19.8555 6.77681 19.5145 6.48828 19.0938 6.48828C18.673 6.48828 18.332 6.77681 18.332 7.13281V9.71094C18.332 10.0669 18.673 10.3555 19.0938 10.3555Z" fill="#A1DBFC"/>
</svg>
