<svg width="26" height="26" viewBox="0 0 26 26" fill="none" xmlns="http://www.w3.org/2000/svg">
<g opacity="0.2">
<path d="M12.7618 6.33171L9.91809 3.48796C9.60121 3.17068 9.08609 3.17068 8.76921 3.48796L5.92546 6.33171C5.60818 6.64899 5.60818 7.1633 5.92546 7.48059C6.24234 7.79787 6.75746 7.79787 7.07434 7.48059L8.53115 6.02377V21.9374C8.53115 22.3859 8.89515 22.7499 9.34365 22.7499C9.79215 22.7499 10.1561 22.3859 10.1561 21.9374V6.02377L11.613 7.48059C11.7714 7.63943 11.9794 7.71865 12.1874 7.71865C12.3954 7.71865 12.6034 7.63943 12.7618 7.48059C13.0791 7.1633 13.0791 6.64899 12.7618 6.33171Z" fill="black"/>
<path d="M20.0743 18.5193C19.7571 18.202 19.2427 18.202 18.9255 18.5193L17.4686 19.9761V4.0625C17.4686 3.614 17.1046 3.25 16.6561 3.25C16.2076 3.25 15.8436 3.614 15.8436 4.0625V19.9761L14.3868 18.5193C14.0696 18.202 13.5548 18.202 13.238 18.5193C12.9207 18.8366 12.9207 19.3509 13.238 19.6682L16.0817 22.5119C16.2406 22.6708 16.4481 22.75 16.6561 22.75C16.8641 22.75 17.0717 22.6708 17.2306 22.5119L20.0743 19.6682C20.3916 19.3509 20.3916 18.8366 20.0743 18.5193Z" fill="black"/>
</g>
</svg>
