<svg width="19" height="19" viewBox="0 0 19 19" fill="none" xmlns="http://www.w3.org/2000/svg">
<path d="M18.9204 11.5995L15.7193 6.264L18.5921 5.466C18.8884 5.38373 19.0617 5.07691 18.9795 4.7807C18.8972 4.48449 18.5903 4.31104 18.2942 4.39335L14.7231 5.38529C14.7228 5.38536 14.7226 5.38544 14.7223 5.38551L10.0565 6.68152V0.557617C10.0565 0.250203 9.80732 0.000976562 9.4999 0.000976562C9.19249 0.000976562 8.94326 0.250203 8.94326 0.557617V6.99075L3.99127 8.36625C3.99101 8.36632 3.99075 8.36639 3.99049 8.36643L0.407695 9.36163C0.111451 9.4439 -0.0619239 9.75072 0.0203105 10.0469C0.0887773 10.2933 0.31251 10.4547 0.556318 10.4547C0.605637 10.4547 0.655809 10.4481 0.705609 10.4343L2.93907 9.81388L0.0794258 14.5805C0.0275469 14.667 8.59226e-05 14.7661 8.59226e-05 14.8669C8.59226e-05 17.1463 1.85455 19.0007 4.13396 19.0007C6.41344 19.0007 8.26787 17.1463 8.26787 14.8669C8.26787 14.7661 8.24045 14.667 8.18853 14.5805L4.9874 9.24496L13.6709 6.83296L10.8112 11.5995C10.7594 11.686 10.7319 11.7851 10.7319 11.8859C10.7319 14.1653 12.5864 16.0197 14.8658 16.0197C15.97 16.0197 17.0081 15.5897 17.7889 14.8089C18.5697 14.0281 18.9997 12.99 18.9996 11.8858C18.9997 11.785 18.9723 11.686 18.9204 11.5995ZM4.13396 17.8874C2.6586 17.8874 1.42746 16.824 1.16536 15.4235H7.10256C6.84049 16.824 5.60935 17.8874 4.13396 17.8874ZM6.7282 14.3102H1.53979L4.13396 9.98625L6.7282 14.3102ZM14.8658 7.0053L17.46 11.3292H12.2716L14.8658 7.0053ZM14.8658 14.9065C13.3905 14.9065 12.1593 13.843 11.8972 12.4426H17.8345C17.5723 13.843 16.3412 14.9065 14.8658 14.9065Z" fill="black" fill-opacity="0.2"/>
</svg>
