<svg width="19" height="21" viewBox="0 0 19 21" fill="none" xmlns="http://www.w3.org/2000/svg">
<path d="M18.9204 12.591L15.7193 6.80477L18.5921 5.93936C18.8884 5.85014 19.0617 5.5174 18.9795 5.19618C18.8972 4.87495 18.5903 4.68685 18.2942 4.77611L14.7231 5.85183C14.7228 5.85191 14.7226 5.85199 14.7223 5.85207L10.0565 7.25756V0.616357C10.0565 0.282975 9.80732 0.0126953 9.49991 0.0126953C9.19249 0.0126953 8.94327 0.282975 8.94327 0.616357V7.59291L3.99128 9.0846C3.99102 9.08468 3.99076 9.08476 3.9905 9.0848L0.407696 10.1641C0.111451 10.2533 -0.0619239 10.586 0.0203105 10.9073C0.0887774 11.1744 0.31251 11.3495 0.556319 11.3495C0.605637 11.3495 0.655809 11.3423 0.70561 11.3273L2.93908 10.6545L0.0794258 15.8238C0.0275469 15.9176 8.59227e-05 16.025 8.59227e-05 16.1344C8.59227e-05 18.6063 1.85455 20.6174 4.13396 20.6174C6.41344 20.6174 8.26788 18.6063 8.26788 16.1344C8.26788 16.025 8.24045 15.9176 8.18854 15.8238L4.9874 10.0375L13.6709 7.4218L10.8112 12.591C10.7594 12.6848 10.7319 12.7922 10.7319 12.9016C10.7319 15.3735 12.5864 17.3846 14.8658 17.3846C15.97 17.3846 17.0081 16.9183 17.7889 16.0715C18.5697 15.2247 18.9997 14.099 18.9997 12.9015C18.9997 12.7922 18.9723 12.6848 18.9204 12.591ZM4.13396 19.4101C2.6586 19.4101 1.42746 18.2568 1.16536 16.738H7.10257C6.8405 18.2568 5.60936 19.4101 4.13396 19.4101ZM6.72821 15.5307H1.53979L4.13396 10.8415L6.72821 15.5307ZM14.8658 7.60869L17.4601 12.2979H12.2716L14.8658 7.60869ZM14.8659 16.1773C13.3905 16.1773 12.1593 15.024 11.8972 13.5053H17.8345C17.5724 15.024 16.3412 16.1773 14.8659 16.1773Z" fill="#0A8ED8"/>
</svg>
