<svg width="19" height="19" viewBox="0 0 19 19" fill="none" xmlns="http://www.w3.org/2000/svg">
<g clip-path="url(#clip0_317_6125)">
<path d="M17.6144 6.72916H1.38525C1.0575 6.72916 0.791504 6.46316 0.791504 6.13541V4.55208C0.791504 3.35112 1.76763 2.375 2.96859 2.375H16.0311C17.232 2.375 18.2082 3.35112 18.2082 4.55208V6.13541C18.2082 6.46316 17.9422 6.72916 17.6144 6.72916Z" fill="#FF5A5A"/>
<path d="M2.375 7.52051V16.8226C2.375 18.0235 3.35113 18.9996 4.55208 18.9996H14.4479C15.6489 18.9996 16.625 18.0235 16.625 16.8226V7.52051H2.375ZM6.92708 15.833C6.92708 16.27 6.57321 16.6247 6.13542 16.6247C5.69763 16.6247 5.34375 16.27 5.34375 15.833V9.8955C5.34375 9.4585 5.69763 9.10384 6.13542 9.10384C6.57321 9.10384 6.92708 9.4585 6.92708 9.8955V15.833ZM10.2917 15.833C10.2917 16.27 9.93779 16.6247 9.5 16.6247C9.06221 16.6247 8.70833 16.27 8.70833 15.833V9.8955C8.70833 9.4585 9.06221 9.10384 9.5 9.10384C9.93779 9.10384 10.2917 9.4585 10.2917 9.8955V15.833ZM13.6562 15.833C13.6562 16.27 13.3024 16.6247 12.8646 16.6247C12.4268 16.6247 12.0729 16.27 12.0729 15.833V9.8955C12.0729 9.4585 12.4268 9.10384 12.8646 9.10384C13.3024 9.10384 13.6562 9.4585 13.6562 9.8955V15.833Z" fill="#FF5A5A"/>
<path d="M12.6668 1.58333V1.38542C12.6668 0.621458 12.0454 0 11.2814 0H7.71891C6.95495 0 6.3335 0.621458 6.3335 1.38542V1.58333H12.6668Z" fill="#FF5A5A"/>
</g>
<defs>
<clipPath id="clip0_317_6125">
<rect width="19" height="19" fill="white"/>
</clipPath>
</defs>
</svg>
