<svg width="26" height="23" viewBox="0 0 26 23" fill="none" xmlns="http://www.w3.org/2000/svg">
<g clip-path="url(#clip0_306_1570)">
<path d="M0.761719 4.08789H1.52344V2.06641C1.52344 1.69422 1.86443 1.39258 2.28516 1.39258H5.33203C5.75276 1.39258 6.09375 1.69422 6.09375 2.06641V4.08789H6.85547C7.2762 4.08789 7.61719 4.38953 7.61719 4.76172V8.80469C7.61719 9.90457 7.01813 10.8829 6.09375 11.4982V12.8477C6.09375 13.7261 5.457 14.475 4.57031 14.7533V14.8691C4.57031 16.5458 5.26181 18.0819 6.40538 19.2671C6.20027 18.7238 6.09375 18.1505 6.09375 17.5645C6.09375 14.5921 8.85022 12.1738 12.2383 12.1738C15.6263 12.1738 18.3828 14.5921 18.3828 17.5645C18.3828 18.1505 18.2763 18.7238 18.0712 19.2671C19.2148 18.0819 19.9062 16.5458 19.9062 14.8691V14.7532C19.0196 14.475 18.3828 13.7261 18.3828 12.8477V11.7181C16.5831 10.9597 15.3359 9.3348 15.3359 7.45703V3.41406C15.3359 3.04188 15.6769 2.74023 16.0977 2.74023H16.8594V0.673828C16.8594 0.301643 17.2004 0 17.6211 0H23.7148C24.1356 0 24.4766 0.301643 24.4766 0.673828V2.74023H25.2383C25.659 2.74023 26 3.04188 26 3.41406V7.45703C26 9.3348 24.7529 10.9597 22.9531 11.7181V12.8477C22.9531 13.7261 22.3164 14.475 21.4297 14.7533V14.8691C21.4297 19.3392 17.2908 23 12.2383 23C7.18515 23 3.04688 19.3387 3.04688 14.8691V14.7533C2.16019 14.475 1.52344 13.7261 1.52344 12.8477V11.4982C0.59906 10.8829 0 9.90457 0 8.80469V4.76172C0 4.38953 0.340988 4.08789 0.761719 4.08789ZM18.3828 2.74023H19.9062V1.34766H18.3828V2.74023ZM22.9531 1.34766H21.4297V2.74023H22.9531V1.34766ZM24.4766 7.45703V4.08789H16.8594V7.45703C16.8594 9.3148 18.5679 10.8262 20.668 10.8262C22.7681 10.8262 24.4766 9.3148 24.4766 7.45703ZM20.668 12.1738C20.4093 12.1738 20.1552 12.1572 19.9062 12.1256V12.8477C19.9062 13.2191 20.248 13.5215 20.668 13.5215C21.0879 13.5215 21.4297 13.2191 21.4297 12.8477V12.1256C21.1807 12.1572 20.9266 12.1738 20.668 12.1738ZM12.2383 13.5215C9.69009 13.5215 7.61719 15.3352 7.61719 17.5645C7.61719 19.7804 9.73334 21.6523 12.2383 21.6523C14.7432 21.6523 16.8594 19.7804 16.8594 17.5645C16.8594 15.3352 14.7865 13.5215 12.2383 13.5215ZM4.57031 2.74023H3.04688V4.08789H4.57031V2.74023ZM3.04688 12.8477C3.04688 13.2191 3.38866 13.5215 3.80859 13.5215C4.22853 13.5215 4.57031 13.2191 4.57031 12.8477V12.1061C4.32414 12.1505 4.06944 12.1738 3.80859 12.1738C3.54774 12.1738 3.29305 12.1505 3.04688 12.1061V12.8477ZM1.52344 8.80469C1.52344 9.91931 2.54858 10.8262 3.80859 10.8262C5.0686 10.8262 6.09375 9.91931 6.09375 8.80469V5.43555H1.52344V8.80469Z" fill="#0A8ED8"/>
</g>
<defs>
<clipPath id="clip0_306_1570">
<rect width="26" height="23" fill="white" transform="matrix(-1 0 0 1 26 0)"/>
</clipPath>
</defs>
</svg>
