<svg width="26" height="26" viewBox="0 0 26 26" fill="none" xmlns="http://www.w3.org/2000/svg">
<path d="M22.9023 13.8926V3.80859C22.9023 3.38786 22.5614 3.04688 22.1406 3.04688C21.7199 3.04688 21.3789 3.38786 21.3789 3.80859V13.7617H19.8555V2.28516C19.8555 1.02515 18.8303 0 17.5703 0H8.42969C7.16968 0 6.14453 1.02515 6.14453 2.28516V13.7617H3.85938C2.59937 13.7617 1.57422 14.7869 1.57422 16.0469V25.2383C1.57422 25.659 1.91521 26 2.33594 26H23.6641C24.0848 26 24.4258 25.659 24.4258 25.2383V16.0469C24.4258 15.0539 23.789 14.2072 22.9023 13.8926ZM7.66797 2.28516C7.66797 1.86522 8.00975 1.52344 8.42969 1.52344H17.5703C17.9902 1.52344 18.332 1.86522 18.332 2.28516V19.8555H7.66797V2.28516ZM22.9023 24.4766H3.09766V16.0469C3.09766 15.6269 3.43944 15.2852 3.85938 15.2852H6.14453V19.8555H5.38281C4.96208 19.8555 4.62109 20.1965 4.62109 20.6172C4.62109 21.0379 4.96208 21.3789 5.38281 21.3789H20.6172C21.0379 21.3789 21.3789 21.0379 21.3789 20.6172C21.3789 20.1965 21.0379 19.8555 20.6172 19.8555H19.8555V15.2852H22.1406C22.5606 15.2852 22.9023 15.6269 22.9023 16.0469V24.4766Z" fill="#0A8ED8"/>
<path d="M9.95312 9.19141H16.0469C16.4676 9.19141 16.8086 8.85042 16.8086 8.42969V3.80859C16.8086 3.38786 16.4676 3.04688 16.0469 3.04688H9.95312C9.53239 3.04688 9.19141 3.38786 9.19141 3.80859V8.42969C9.19141 8.85042 9.53239 9.19141 9.95312 9.19141ZM10.7148 4.57031H15.2852V7.66797H10.7148V4.57031Z" fill="#A1DBFC"/>
<path d="M9.95312 12.2383H11.4766C11.8973 12.2383 12.2383 11.8973 12.2383 11.4766C12.2383 11.0558 11.8973 10.7148 11.4766 10.7148H9.95312C9.53239 10.7148 9.19141 11.0558 9.19141 11.4766C9.19141 11.8973 9.53239 12.2383 9.95312 12.2383Z" fill="#A1DBFC"/>
<path d="M16.0469 10.7148H14.5234C14.1027 10.7148 13.7617 11.0558 13.7617 11.4766C13.7617 11.8973 14.1027 12.2383 14.5234 12.2383H16.0469C16.4676 12.2383 16.8086 11.8973 16.8086 11.4766C16.8086 11.0558 16.4676 10.7148 16.0469 10.7148Z" fill="#A1DBFC"/>
<path d="M9.95312 15.2852H11.4766C11.8973 15.2852 12.2383 14.9442 12.2383 14.5234C12.2383 14.1027 11.8973 13.7617 11.4766 13.7617H9.95312C9.53239 13.7617 9.19141 14.1027 9.19141 14.5234C9.19141 14.9442 9.53239 15.2852 9.95312 15.2852Z" fill="#A1DBFC"/>
<path d="M16.0469 13.7617H14.5234C14.1027 13.7617 13.7617 14.1027 13.7617 14.5234C13.7617 14.9442 14.1027 15.2852 14.5234 15.2852H16.0469C16.4676 15.2852 16.8086 14.9442 16.8086 14.5234C16.8086 14.1027 16.4676 13.7617 16.0469 13.7617Z" fill="#A1DBFC"/>
<path d="M9.95312 18.332H11.4766C11.8973 18.332 12.2383 17.991 12.2383 17.5703C12.2383 17.1496 11.8973 16.8086 11.4766 16.8086H9.95312C9.53239 16.8086 9.19141 17.1496 9.19141 17.5703C9.19141 17.991 9.53239 18.332 9.95312 18.332Z" fill="#A1DBFC"/>
<path d="M16.0469 16.8086H14.5234C14.1027 16.8086 13.7617 17.1496 13.7617 17.5703C13.7617 17.991 14.1027 18.332 14.5234 18.332H16.0469C16.4676 18.332 16.8086 17.991 16.8086 17.5703C16.8086 17.1496 16.4676 16.8086 16.0469 16.8086Z" fill="#A1DBFC"/>
</svg>
